<svg width="548" height="517" viewBox="0 0 548 517" fill="none" xmlns="http://www.w3.org/2000/svg">
<g opacity="0.8">
<path opacity="0.8" d="M447.172 503.124L165.39 499.221C116.686 499.356 68.6522 463.687 39.4838 408.501C10.1816 353.449 -0.388598 280.496 9.245 213.734C18.7448 146.973 47.9132 86.9412 87.2504 47.3688C111.468 23.0062 139.968 5.91201 169.671 1.33561C199.509 -3.24079 230.684 5.10441 256.24 27.7172C300.795 66.8858 324.879 144.281 372.646 175.104C394.857 189.506 419.877 192.064 443.426 200.947C489.855 218.445 534.009 268.651 540.163 335.413C544.713 384.407 533.34 420.884 509.925 459.379C490.657 491.28 475.27 506.893 447.172 503.124Z" fill="#FAD3D1"/>
</g>
<path d="M499.488 505.682C499.488 511.739 402.885 516.584 283.669 516.584C164.453 516.584 67.8494 511.739 67.8494 505.682C67.8494 499.625 164.453 494.779 283.669 494.779C402.885 494.779 499.488 499.759 499.488 505.682Z" fill="#FAD3D1"/>
<path d="M491.193 180.354C492.397 162.586 480.489 150.338 461.221 149.126C445.433 148.05 432.187 154.241 422.018 165.548C418.539 169.451 412.786 169.989 408.772 166.624L388.969 150.203C385.089 146.973 384.286 141.185 387.364 137.147C405.561 113.054 433.123 99.3244 469.517 101.747C514.072 104.843 543.241 131.359 540.163 174.162C536.417 228.137 492.798 234.597 484.503 266.094C483.298 270.536 479.151 273.497 474.601 273.228L448.51 271.343C442.757 270.939 438.609 265.555 439.813 259.902C448.778 218.715 489.186 209.696 491.193 180.354ZM428.574 328.683C429.912 310.108 442.356 301.494 458.947 302.57C475.538 303.782 486.777 314.011 485.439 332.586C484.235 350.757 471.524 360.852 454.933 359.641C438.475 358.564 427.37 346.719 428.574 328.683Z" fill="#91B280"/>
<path d="M497.214 180.623C498.418 162.856 486.51 150.607 467.242 149.396C451.454 148.319 438.208 154.51 428.039 165.817C424.56 169.72 418.807 170.259 414.793 166.894L394.99 150.472C391.11 147.242 390.307 141.454 393.385 137.416C411.582 113.323 439.144 99.5936 475.538 102.016C520.093 105.112 549.262 131.628 546.184 174.431C542.438 228.406 498.819 234.867 490.524 266.363C489.319 270.805 485.172 273.766 480.622 273.497L454.531 271.612C448.778 271.209 444.63 265.825 445.834 260.171C454.799 218.984 495.207 209.966 497.214 180.623ZM434.595 328.817C435.933 310.243 448.377 301.628 464.968 302.705C481.559 303.916 492.798 314.146 491.46 332.721C490.256 350.892 477.545 360.987 460.954 359.775C444.496 358.699 433.391 346.988 434.595 328.817Z" fill="#AECA9F"/>
<path d="M291.563 54.6372C291.964 49.5224 288.486 46.0228 283 45.7536C278.451 45.4844 274.704 47.2342 271.761 50.4646C270.824 51.5414 269.085 51.676 268.014 50.7338L262.395 46.0228C261.324 45.0806 261.057 43.4654 261.993 42.254C267.211 35.3894 275.106 31.486 285.542 32.159C298.253 33.1012 306.549 40.6388 305.746 52.8874C304.675 68.3664 292.232 70.1162 289.824 79.1344C289.422 80.3458 288.352 81.288 287.014 81.1534L279.521 80.615C277.915 80.4804 276.711 78.9998 276.979 77.3846C279.387 65.5398 291.028 62.9824 291.563 54.6372ZM273.634 96.9016C274.035 91.6522 277.514 89.0948 282.331 89.4986C287.148 89.7678 290.225 92.729 289.957 98.113C289.556 103.362 285.943 106.189 281.26 105.92C276.444 105.516 273.232 102.151 273.634 96.9016Z" fill="#91B280"/>
<path d="M293.302 54.6372C293.704 49.5224 290.225 46.0228 284.739 45.7536C280.19 45.4844 276.444 47.2342 273.5 50.4646C272.563 51.5414 270.824 51.676 269.754 50.7338L264.134 46.0228C263.064 45.0806 262.796 43.4654 263.733 42.254C268.951 35.3894 276.845 31.486 287.281 32.159C299.992 33.1012 308.288 40.6388 307.485 52.8874C306.415 68.3664 293.971 70.1162 291.563 79.1344C291.162 80.3458 290.091 81.288 288.753 81.1534L281.26 80.615C279.655 80.4804 278.451 78.9998 278.718 77.3846C281.127 65.5398 292.767 62.9824 293.302 54.6372ZM275.373 97.0362C275.775 91.7868 279.253 89.2294 284.07 89.6332C288.887 89.9024 291.964 92.8636 291.697 98.2476C291.295 103.497 287.683 106.324 283 106.054C278.183 105.516 274.972 102.286 275.373 97.0362Z" fill="#AECA9F"/>
<path d="M65.7086 196.775C64.2368 193.275 60.8918 192.198 57.1454 193.679C54.068 195.025 52.1948 197.313 51.2582 200.544C50.9906 201.62 49.9202 202.293 48.8498 202.024L43.6316 200.813C42.5612 200.544 41.8922 199.601 42.1598 198.525C43.364 192.198 47.2442 187.084 54.3356 184.122C63.0326 180.488 71.0606 182.776 74.4056 191.122C78.6872 201.62 71.0606 207.004 72.3986 213.734C72.5324 214.677 72.131 215.619 71.1944 216.023L66.11 218.176C65.0396 218.58 63.7016 218.042 63.434 216.83C61.2932 207.947 68.117 202.428 65.7086 196.775ZM67.7156 230.559C66.2438 226.925 67.8494 224.099 71.0606 222.753C74.2718 221.407 77.3492 222.349 78.821 225.983C80.2928 229.483 78.821 232.578 75.6098 233.924C72.3986 235.27 69.1874 234.194 67.7156 230.559Z" fill="#91B280"/>
<path d="M66.9128 196.236C65.441 192.737 62.096 191.66 58.3496 193.141C55.2722 194.487 53.399 196.775 52.4624 200.005C52.1948 201.082 51.1244 201.755 50.054 201.486L44.8358 200.274C43.7654 200.005 43.0964 199.063 43.364 197.986C44.5682 191.66 48.4484 186.545 55.5398 183.584C64.2368 179.95 72.2648 182.238 75.6098 190.583C79.8914 201.082 72.2648 206.466 73.6028 213.196C73.7366 214.138 73.3352 215.08 72.3986 215.484L67.3142 217.638C66.2438 218.042 64.9058 217.503 64.6382 216.292C62.4974 207.408 69.1874 201.89 66.9128 196.236ZM68.9198 230.021C67.448 226.387 69.0536 223.56 72.2648 222.214C75.476 220.868 78.5534 221.81 80.0252 225.445C81.497 228.944 80.0252 232.04 76.814 233.386C73.469 234.867 70.2578 233.655 68.9198 230.021Z" fill="#AECA9F"/>
<path d="M173.551 427.345C170.073 440.535 167.397 454.534 162.847 467.455C160.439 474.185 156.425 477.55 150.672 479.166C151.207 480.781 151.742 482.396 152.411 483.877C152.679 484.55 153.481 485.088 154.284 485.088C159.235 485.223 165.925 484.684 170.474 484.28C175.291 452.515 179.439 420.076 183.72 387.772C180.643 401.098 177.03 414.288 173.551 427.345Z" fill="#020A2D"/>
<path d="M185.593 121.129C186.931 126.782 185.326 132.705 183.185 138.089C182.516 139.973 181.713 141.723 181.579 143.742C181.446 145.223 181.579 146.569 181.713 148.049C182.516 154.51 184.791 161.24 190.009 164.874C191.882 166.22 194.424 169.451 196.699 168.778C198.171 168.374 199.509 165.009 200.579 163.797C205.396 158.817 207.537 151.818 209.142 145.088C209.276 144.55 209.41 144.011 209.41 143.338C209.41 142.665 209.008 141.992 208.741 141.319C206.199 135.397 205.797 128.532 207.938 122.341" fill="#FF9670"/>
<path d="M185.861 128.129C186.396 128.398 186.798 128.802 187.199 129.206C190.143 132.436 196.03 132.84 200.178 132.301C201.917 132.032 205.262 130.013 206.734 128.667C206.734 125.975 207.135 124.898 208.072 122.341L185.593 120.995C186.129 123.418 186.129 125.706 185.861 128.129Z" fill="#FC7F51"/>
<path d="M170.875 470.82C170.875 470.82 165.791 490.337 168.066 498.01C168.066 498.01 157.897 503.394 147.862 496.529C147.862 496.529 157.629 493.164 154.284 465.571" fill="#FF9670"/>
<path d="M124.714 508.239C124.982 507.566 125.517 507.028 126.052 506.759C129.397 504.874 137.693 500.298 150.136 494.106C150.136 494.106 157.094 496.529 167.664 495.183C167.664 495.183 168.735 502.182 168.601 507.97C162.312 508.105 137.292 509.181 124.714 508.239Z" fill="#030F4C"/>
<path d="M168.735 507.835C168.735 509.316 168.601 510.662 168.601 511.873H124.313V509.72C124.313 509.181 124.447 508.643 124.714 508.239C137.292 509.181 162.312 508.105 168.735 507.835Z" fill="#465282"/>
<path d="M148.531 496.26C148.531 496.664 148.932 497.067 149.334 497.067C149.735 497.067 150.136 496.664 150.136 496.26C150.136 495.856 149.735 495.452 149.334 495.452C148.798 495.452 148.531 495.856 148.531 496.26Z" fill="white"/>
<path d="M135.151 502.721C135.151 503.124 135.552 503.528 135.954 503.528C136.355 503.528 136.756 503.124 136.756 502.721C136.756 502.317 136.355 501.913 135.954 501.913C135.418 501.913 135.151 502.317 135.151 502.721Z" fill="white"/>
<path d="M142.51 499.625C142.51 500.029 142.911 500.432 143.313 500.432C143.714 500.432 144.115 500.029 144.115 499.625C144.115 499.221 143.714 498.817 143.313 498.817C142.777 498.952 142.51 499.221 142.51 499.625Z" fill="white"/>
<path d="M224.128 471.897C224.128 471.897 229.212 491.414 226.938 499.086C226.938 499.086 237.106 504.47 247.141 497.606C247.141 497.606 237.374 494.241 240.719 466.648" fill="#FF9670"/>
<path d="M270.289 509.316C270.021 508.643 269.486 508.105 268.951 507.835C265.606 505.951 257.31 501.375 244.867 495.183C244.867 495.183 237.909 497.606 227.339 496.26C227.339 496.26 226.269 503.259 226.402 509.047C232.691 509.181 257.712 510.258 270.289 509.316Z" fill="#030F4C"/>
<path d="M226.135 508.912C226.135 510.393 226.269 511.739 226.269 512.95H270.556V510.797C270.556 510.258 270.423 509.72 270.155 509.316C257.712 510.258 232.691 509.181 226.135 508.912Z" fill="#465282"/>
<path d="M246.472 497.337C246.472 497.74 246.071 498.144 245.67 498.144C245.268 498.144 244.867 497.74 244.867 497.337C244.867 496.933 245.268 496.529 245.67 496.529C246.071 496.529 246.472 496.798 246.472 497.337Z" fill="white"/>
<path d="M259.852 503.797C259.852 504.201 259.451 504.605 259.05 504.605C258.648 504.605 258.247 504.201 258.247 503.797C258.247 503.394 258.648 502.99 259.05 502.99C259.451 502.99 259.852 503.394 259.852 503.797Z" fill="white"/>
<path d="M252.493 500.702C252.493 501.105 252.092 501.509 251.691 501.509C251.289 501.509 250.888 501.105 250.888 500.702C250.888 500.298 251.289 499.894 251.691 499.894C252.092 499.894 252.493 500.298 252.493 500.702Z" fill="white"/>
<path d="M170.608 484.279C165.925 484.683 159.369 485.221 154.418 485.086C153.615 485.086 152.946 484.548 152.545 483.875C148.932 475.395 148.129 465.973 147.46 456.686C142.911 393.289 144.249 332.854 149.467 269.457C149.467 268.784 148.665 264.881 149.2 264.477C149.735 263.939 150.672 264.208 151.474 264.342C176.763 271.88 203.389 275.11 229.747 274.034C231.487 273.899 233.494 273.899 234.832 275.245C235.501 275.918 234.564 274.303 234.832 275.245C236.571 280.629 238.311 289.109 238.846 294.762C241.254 326.393 243.663 357.889 244.733 389.655C245.67 420.882 245.402 452.109 244.867 483.471C244.867 484.952 243.663 486.298 242.191 486.432L233.628 487.509C232.423 487.644 230.416 487.778 229.212 487.644C226.536 487.509 225.332 487.778 224.931 486.567C209.276 436.092 202.586 348.737 194.023 309.164C193.755 320.201 192.15 331.104 190.41 342.007C183.185 388.847 177.699 437.438 170.608 484.279Z" fill="#030F4C"/>
<path d="M149.334 269.459C148.665 276.862 148.129 284.265 147.594 291.533C160.038 288.841 174.22 290.053 185.861 289.514C195.628 288.976 204.861 286.957 214.227 283.996C221.184 281.842 228.409 279.419 234.43 275.247C233.092 274.035 231.219 274.035 229.346 274.035C202.987 275.112 176.361 271.882 151.073 264.344C150.27 264.075 149.467 263.94 148.798 264.479C148.665 264.882 149.467 268.92 149.334 269.459Z" fill="#020A2D"/>
<path d="M244.599 389.522C244.064 373.235 243.127 356.949 242.057 340.797C241.789 344.566 241.656 348.2 241.388 351.834C240.184 371.351 237.508 390.733 236.304 410.25C235.233 428.018 233.761 446.054 234.029 463.821C234.163 472.974 231.888 481.858 224.128 484.953C224.262 485.492 224.395 486.03 224.663 486.569C225.064 487.915 226.269 487.511 228.945 487.645C230.149 487.78 232.156 487.645 233.36 487.511L241.923 486.434C243.395 486.299 244.599 484.953 244.599 483.473C245.134 452.111 245.536 420.749 244.599 389.522Z" fill="#020A2D"/>
<path d="M195.093 311.319C198.037 322.357 200.98 333.528 203.523 344.7C206.199 355.872 208.607 367.178 210.882 378.485C213.156 389.791 215.297 401.098 217.17 412.404C219.043 423.845 220.783 435.151 222.388 446.592C223.86 458.033 225.198 469.474 226.402 481.05C226.536 482.531 226.67 484.011 226.804 485.357C226.804 486.03 227.874 486.03 227.874 485.357C226.804 473.916 225.466 462.341 223.994 450.9C222.522 439.459 220.783 428.018 219.043 416.711C217.17 405.27 215.163 393.964 212.889 382.657C210.614 371.351 208.206 360.045 205.663 348.873C203.121 337.701 200.311 326.395 197.234 315.357C196.833 314.011 196.431 312.531 196.03 311.185C195.896 310.377 194.959 310.646 195.093 311.319Z" fill="#465282"/>
<path d="M192.15 310.512C189.474 321.549 186.931 332.721 184.657 343.758C182.382 354.93 180.241 366.236 178.234 377.408C176.361 388.58 174.488 399.886 173.016 411.058C171.411 422.23 170.073 433.536 168.868 444.708C167.664 456.014 166.728 467.455 165.925 478.896C165.791 480.242 165.791 481.723 165.657 483.069C165.657 483.742 166.594 483.742 166.728 483.069C167.53 471.763 168.467 460.456 169.537 449.015C170.608 437.709 171.946 426.402 173.551 415.096C175.023 403.79 176.763 392.618 178.636 381.311C180.509 370.14 182.65 358.968 184.791 347.931C187.065 336.759 189.474 325.722 192.15 314.55C192.417 313.204 192.819 311.858 193.086 310.512C193.22 310.243 192.283 309.973 192.15 310.512Z" fill="#465282"/>
<path d="M148.397 293.956C152.411 289.38 155.622 284.265 158.164 278.746C158.432 278.208 157.495 277.804 157.228 278.477C154.819 283.861 151.608 288.841 147.728 293.148C147.193 293.821 147.862 294.494 148.397 293.956Z" fill="#465282"/>
<path d="M237.508 292.475C232.557 288.976 228.276 284.669 224.663 279.823C224.262 279.285 225.198 278.746 225.6 279.285C229.078 283.996 233.36 288.034 238.043 291.533C238.578 291.937 238.043 292.879 237.508 292.475Z" fill="#465282"/>
<path d="M180.509 83.1724C179.171 89.7678 178.502 96.4978 178.636 103.228C178.77 109.285 180.108 114.534 183.586 119.514C187.734 125.302 191.079 128.802 197.1 129.071C202.854 129.34 207.403 126.244 210.748 121.533C214.093 116.822 216.367 112.246 217.304 106.458C218.508 98.3822 218.374 90.1716 217.17 82.2302" fill="#FF9670"/>
<path d="M184.657 75.3656C184.389 77.25 185.192 79.269 186.664 80.615C188.136 81.961 190.276 82.2302 192.15 81.6918C193.086 81.4226 193.889 80.8842 194.558 80.0766C195.093 79.4036 195.896 78.1922 196.833 78.9998C197.635 79.6728 198.171 80.3458 199.107 80.7496C199.91 81.1534 200.713 81.4226 201.649 81.5572C203.79 81.8264 205.931 81.1534 207.537 79.8074C208.072 79.4036 207.403 78.596 206.868 78.9998C205.53 80.2112 203.79 80.7496 202.185 80.615C201.382 80.615 200.445 80.3458 199.776 79.942C198.973 79.5382 198.438 78.8652 197.769 78.3268C197.1 77.7884 196.431 77.5192 195.628 77.923C194.826 78.3268 194.424 78.9998 193.889 79.5382C192.551 80.8842 190.544 81.288 188.805 80.615C186.798 79.8074 185.727 77.5192 185.995 75.5002C185.727 74.8272 184.657 74.6926 184.657 75.3656Z" fill="#561C02"/>
<path d="M191.347 66.2128C192.685 65.4052 194.29 65.136 195.762 65.6744C197.1 66.2128 198.037 67.2896 198.438 68.6356C198.572 69.3086 199.642 69.0394 199.375 68.3664C198.84 66.7512 197.635 65.2706 196.03 64.5976C194.29 63.9246 192.283 64.0592 190.812 65.136C190.41 65.6744 190.812 66.6166 191.347 66.2128Z" fill="#561C02"/>
<path d="M208.607 73.6158C210.48 73.212 212.621 73.7504 213.424 75.5002C213.825 76.4424 213.825 77.3846 213.558 78.3268C213.424 78.7306 213.156 79.1344 212.889 79.5382C212.621 79.942 212.353 80.2112 212.086 80.615C211.818 81.288 212.22 81.6918 212.889 82.0956C213.691 82.4994 214.227 83.0378 214.762 83.7108C215.832 85.326 216.234 87.345 216.501 89.2294C216.635 89.9024 217.572 89.6332 217.438 88.9602C217.17 86.9412 216.769 84.7876 215.565 83.1724C215.029 82.4994 214.36 81.8264 213.691 81.4226C213.558 81.4226 213.022 81.1534 213.022 81.1534L213.424 80.7496C213.691 80.3458 213.959 79.8074 214.227 79.4036C215.029 77.6538 215.029 75.7694 213.825 74.2888C212.487 72.6736 210.346 72.4044 208.473 72.6736C207.67 72.8082 207.938 73.7504 208.607 73.6158Z" fill="#561C02"/>
<path d="M180.375 98.786C179.84 97.9784 179.171 97.1708 178.234 96.6324C177.432 96.094 176.361 96.094 175.558 96.4978C174.756 96.9016 174.087 97.9784 173.819 99.0552C173.551 100.132 173.551 101.209 173.685 102.286C173.953 104.17 175.023 105.92 176.495 106.593C177.967 107.266 179.974 106.458 180.643 104.708C181.178 103.497 181.044 102.151 180.777 100.94" fill="#FF9670"/>
<path d="M179.037 99.8628C178.77 99.5936 178.636 99.3244 178.234 99.0552C177.967 98.9206 177.565 98.786 177.298 99.0552C177.03 99.1898 176.763 99.5936 176.629 99.9974C176.495 100.401 176.495 100.805 176.629 101.209C176.763 101.882 177.03 102.555 177.565 102.689C178.101 102.959 178.77 102.689 179.037 102.016C179.171 101.613 179.171 101.074 179.037 100.67" fill="#FC7F51"/>
<path d="M216.501 100.67C217.17 99.9974 217.973 99.3244 218.776 98.9206C219.579 98.6514 220.649 98.6514 221.318 99.1898C221.987 99.7282 222.522 100.805 222.656 101.882C222.79 102.959 222.656 104.035 222.255 105.112C221.719 106.862 220.515 108.477 219.043 108.881C217.572 109.285 215.832 108.208 215.431 106.324C215.163 105.112 215.431 103.766 215.832 102.555" fill="#FF9670"/>
<path d="M217.572 101.882C217.839 101.613 218.107 101.343 218.374 101.209C218.642 101.074 219.043 101.074 219.311 101.343C219.579 101.613 219.712 101.882 219.712 102.286C219.712 102.689 219.712 103.093 219.579 103.497C219.311 104.17 218.91 104.708 218.374 104.843C217.839 104.978 217.17 104.574 217.036 103.901C216.903 103.497 217.036 102.959 217.17 102.555" fill="#FC7F51"/>
<path d="M222.79 89.0948C222.522 87.0758 221.586 85.0568 221.586 82.9032C221.719 81.0188 222.656 79.1344 222.522 77.25C222.388 73.4812 218.776 70.9238 215.297 69.7124C211.818 68.6356 207.804 68.2318 204.727 66.2128C202.452 64.5976 200.847 62.1748 198.438 60.6942C194.826 58.406 189.741 58.9444 186.396 61.771C183.051 64.5976 181.713 69.3086 182.516 73.4812C179.439 72.8082 176.094 74.9618 174.889 77.923C173.819 80.8842 174.756 84.5184 176.896 86.9412C176.361 89.0948 175.692 93.8058 178.77 97.5746C178.77 97.5746 179.974 93.6712 180.241 89.4986C181.847 90.3062 183.586 90.8446 185.46 90.9792C188.136 91.2484 190.678 90.9792 193.22 90.037C196.297 88.8256 199.375 86.8066 202.586 87.345C204.459 87.6142 206.065 88.9602 207.537 90.1716C208.339 90.8446 209.142 91.6522 210.213 91.9214C212.353 92.5944 215.163 91.5176 216.903 93.1328C217.036 93.2674 217.036 93.402 217.17 93.402C217.17 97.1708 217.705 100.536 217.705 100.536C218.776 99.459 219.445 98.3822 219.98 97.1708C222.121 95.1518 223.191 92.056 222.79 89.0948Z" fill="#6E2501"/>
<path d="M193.755 115.207C194.692 115.207 196.565 114.669 198.037 114.669C198.973 114.669 199.91 114.803 200.98 114.938C201.114 114.938 201.248 114.938 201.382 115.073C201.516 115.207 201.649 115.476 201.516 115.611C201.516 115.88 201.248 116.015 201.114 116.149C200.178 116.957 198.706 117.226 197.368 117.092C195.896 116.822 194.424 116.419 193.755 115.207Z" fill="#FE6705"/>
<path d="M179.304 107.266C178.903 109.554 181.177 111.842 184.255 112.246C187.332 112.784 190.142 111.304 190.41 109.016C190.811 106.727 188.536 104.439 185.459 104.035C182.515 103.632 179.706 104.978 179.304 107.266Z" fill="#FC7F51"/>
<path d="M215.431 109.15C215.832 111.438 213.691 113.727 210.614 114.265C207.537 114.803 204.727 113.457 204.325 111.169C203.924 108.881 206.065 106.593 209.142 106.054C212.22 105.516 215.029 106.862 215.431 109.15Z" fill="#FC7F51"/>
<path d="M194.558 92.8636C190.678 92.3252 185.727 92.056 183.319 93.6712C182.115 94.4788 180.91 94.2096 182.115 93.2674C185.727 90.4408 189.741 90.5754 195.361 90.9792C196.03 90.9792 196.297 91.6522 196.164 92.1906C195.762 92.729 195.093 93.1328 194.558 92.8636Z" fill="#6E2501"/>
<path d="M186.53 98.9206C186.664 99.9974 187.6 100.805 188.403 100.67C189.34 100.536 189.875 99.5936 189.741 98.3822C189.607 97.3054 188.671 96.4978 187.868 96.6324C187.065 96.767 186.396 97.8438 186.53 98.9206Z" fill="#2D0E0B"/>
<path d="M203.656 93.6712C207.135 93.2674 211.551 92.9982 213.691 94.6134C214.762 95.421 215.832 95.1518 214.762 94.2096C211.551 91.5176 208.072 91.5176 202.987 91.7868C202.452 91.7868 202.051 92.3252 202.318 92.8636C202.586 93.402 203.121 93.8058 203.656 93.6712Z" fill="#6E2501"/>
<path d="M210.213 100.267C209.945 101.343 209.008 102.016 208.072 101.882C207.135 101.613 206.734 100.536 207.001 99.459C207.269 98.3822 208.206 97.7092 209.142 97.8438C210.079 98.113 210.614 99.1898 210.213 100.267Z" fill="#2D0E0B"/>
<path d="M199.375 108.477C200.178 108.343 200.847 108.073 201.516 107.67C199.241 105.516 198.572 103.093 198.973 100.132C198.973 99.7282 199.241 99.0552 199.642 99.0552C200.044 99.0552 199.776 100.132 199.776 100.536C199.509 104.17 200.98 105.381 203.389 107.266C203.656 107.535 203.656 108.073 203.389 108.343C202.318 109.15 201.114 109.823 199.776 109.958C198.706 110.092 198.304 108.746 199.375 108.477Z" fill="#F46E45"/>
<path d="M187.199 106.324C185.995 105.92 184.924 105.247 183.988 104.305C182.516 102.824 181.713 100.67 181.713 98.5168C181.713 94.075 185.326 90.4408 189.607 90.4408C191.748 90.4408 193.621 91.383 195.093 92.8636C196.565 94.3442 197.368 96.4978 197.368 98.6514C197.368 103.093 193.755 106.727 189.474 106.727C188.671 106.593 187.868 106.593 187.199 106.324ZM191.347 91.7868C190.678 91.6522 190.143 91.5176 189.474 91.5176C185.861 91.5176 182.784 94.6134 182.784 98.5168C182.784 100.401 183.453 102.151 184.657 103.497C185.861 104.843 187.6 105.516 189.34 105.516C192.952 105.516 196.03 102.42 196.03 98.5168C196.03 96.6324 195.361 94.8826 194.157 93.5366C193.354 92.729 192.417 92.1906 191.347 91.7868Z" fill="#D03711"/>
<path d="M182.65 96.4978V97.5746L179.037 97.3054L179.305 95.8248L182.65 96.4978Z" fill="#D03711"/>
<path d="M207.537 108.208C203.255 107.804 200.178 103.766 200.713 99.3244C200.98 97.1708 201.917 95.2864 203.523 93.8058C205.128 92.4598 207.135 91.7868 209.276 92.056C213.558 92.4598 216.635 96.4978 216.1 100.94C215.832 103.093 214.896 104.978 213.29 106.458C212.22 107.266 211.015 107.939 209.811 108.208C209.008 108.208 208.206 108.343 207.537 108.208ZM204.192 94.748C202.854 95.9594 201.917 97.5746 201.783 99.459C201.382 103.362 204.058 106.727 207.67 107.131C209.41 107.266 211.149 106.727 212.487 105.651C213.825 104.439 214.762 102.824 214.896 100.94C215.297 97.0362 212.621 93.6712 209.008 93.2674C208.339 93.1328 207.67 93.2674 207.135 93.402C206.065 93.5366 205.128 93.9404 204.192 94.748Z" fill="#D03711"/>
<path d="M215.163 98.9206V99.8628L217.839 100.401L217.705 98.9206H215.163Z" fill="#D03711"/>
<path d="M196.833 98.6514L196.431 97.7092C196.565 97.7092 199.91 96.2286 201.516 98.5168L200.713 99.0552C199.642 97.44 196.966 98.6514 196.833 98.6514Z" fill="#D03711"/>
<path d="M270.556 194.217C264.803 184.795 258.113 175.104 251.824 165.951C245.803 157.068 239.782 148.857 230.149 144.415C229.346 143.877 228.543 143.339 227.607 142.935C222.924 140.512 217.973 138.762 212.889 137.551C211.684 137.282 210.614 137.012 209.41 137.282C209.276 137.282 209.276 137.282 209.142 137.282C204.459 149.53 195.628 169.586 195.495 169.182C195.361 168.778 185.861 145.627 182.115 136.609C181.579 136.474 181.178 136.609 180.643 136.609C173.016 137.147 159.904 139.166 155.488 141.589C145.453 145.896 139.432 154.376 133.278 163.259C126.989 172.278 120.299 182.103 114.546 191.525C114.144 192.064 113.877 192.871 114.144 193.41C114.278 193.679 114.412 193.814 114.679 193.948C122.841 200.005 131.404 205.389 140.369 210.235C140.77 210.504 141.172 210.639 141.707 210.639C142.376 210.504 142.644 209.831 142.911 209.293C145.587 203.101 148.531 199.198 151.742 194.621C150.672 220.464 149.467 246.173 148.397 272.016C148.397 272.958 148.397 274.035 148.932 274.843C149.334 275.381 150.136 275.65 150.805 275.92C176.763 284.669 205.396 285.207 231.621 277.131C232.557 276.862 233.494 276.458 234.029 275.785C234.564 274.977 234.564 274.035 234.564 273.093C234.832 251.826 233.36 230.559 231.888 209.293C231.487 204.312 231.219 199.332 231.219 194.487C235.099 200.544 238.712 204.582 242.057 212.254C242.325 212.792 242.592 213.465 243.261 213.6C243.663 213.734 244.198 213.465 244.599 213.196C253.564 208.35 262.127 202.832 270.289 196.909C270.423 196.775 270.69 196.64 270.824 196.371C271.225 195.563 270.958 194.89 270.556 194.217Z" fill="#C3DBB6"/>
<path d="M225.6 236.616C223.994 242.673 222.79 248.73 221.853 255.057C221.184 259.768 219.579 263.806 216.1 267.036C209.276 273.228 198.438 274.035 189.741 275.247C177.432 276.862 163.918 277.131 151.341 275.92C177.164 284.669 205.663 285.072 231.754 276.996C232.691 276.727 233.628 276.323 234.163 275.65C234.698 274.843 234.698 273.901 234.698 272.958C234.966 251.692 233.494 230.425 232.022 209.158C230.283 218.445 227.874 227.598 225.6 236.616Z" fill="#C3DBB6"/>
<path d="M151.876 195.025C151.876 194.89 152.01 194.621 152.01 194.487C151.742 194.621 151.341 194.756 151.073 194.89C145.587 196.775 141.707 200.947 135.552 201.217C130.334 201.486 125.116 199.601 120.165 197.717C126.721 202.293 133.545 206.466 140.637 210.369C141.038 210.639 141.439 210.773 141.975 210.773C142.644 210.639 142.911 209.966 143.179 209.427C145.855 203.236 148.798 199.332 152.01 194.756L151.876 195.025Z" fill="#C3DBB6"/>
<path d="M270.556 194.217C264.803 184.795 258.113 175.104 251.824 165.951C251.691 165.817 251.691 165.682 251.557 165.548C253.564 172.143 254.367 179.277 255.169 186.007C256.507 197.313 252.895 204.178 246.205 212.119C254.634 207.408 262.662 202.293 270.423 196.64C270.556 196.506 270.824 196.371 270.958 196.102C271.225 195.563 270.958 194.89 270.556 194.217Z" fill="#C3DBB6"/>
<path d="M195.628 168.509C195.628 168.509 206.065 146.3 207.269 135.263L215.163 137.685L213.29 162.721L204.459 160.029L195.628 168.509Z" fill="#C3DBB6"/>
<path d="M195.628 168.509C195.628 168.509 185.46 145.761 184.389 134.724L176.763 137.012L178.77 162.721L187.065 160.029L195.628 168.509Z" fill="#C3DBB6"/>
<path d="M195.093 168.509C193.488 183.315 192.417 198.255 191.882 213.196C191.614 220.599 191.481 228.002 191.481 235.405C191.481 242.808 191.614 250.211 191.481 257.479C191.347 265.825 191.079 274.035 190.143 282.246C190.009 282.919 191.079 282.919 191.213 282.246C192.952 267.574 192.551 252.634 192.551 237.828C192.551 223.022 193.086 208.081 194.023 193.275C194.558 184.93 195.361 176.585 196.164 168.24C196.164 167.836 195.227 167.836 195.093 168.509Z" fill="#606060"/>
<path d="M190.276 175.239C192.283 175.239 192.283 172.143 190.276 172.143C188.403 172.143 188.403 175.239 190.276 175.239Z" fill="#606060"/>
<path d="M188.537 193.41C190.544 193.41 190.544 190.314 188.537 190.314C186.53 190.314 186.53 193.41 188.537 193.41Z" fill="#606060"/>
<path d="M187.333 214.004C189.34 214.004 189.34 210.908 187.333 210.908C185.326 210.908 185.326 214.004 187.333 214.004Z" fill="#606060"/>
<path d="M187.333 232.04C189.34 232.04 189.34 228.944 187.333 228.944C185.326 228.944 185.326 232.04 187.333 232.04Z" fill="#606060"/>
<path d="M186.798 249.942C188.805 249.942 188.805 246.846 186.798 246.846C184.791 246.846 184.791 249.942 186.798 249.942Z" fill="#606060"/>
<path d="M185.727 267.171C187.734 267.171 187.734 264.075 185.727 264.075C183.72 264.075 183.72 267.171 185.727 267.171Z" fill="#606060"/>
<path d="M233.36 190.583C233.092 180.084 233.628 169.72 235.099 159.221C235.501 156.26 235.902 153.299 236.437 150.203C236.571 149.53 235.367 149.261 235.233 149.934C233.36 160.298 232.29 170.932 232.022 181.43C232.022 184.392 232.022 187.487 232.022 190.449C232.156 191.391 233.36 191.391 233.36 190.583Z" fill="#606060"/>
<path d="M241.789 209.158C249.148 205.389 256.106 200.678 262.528 195.294C264.402 193.814 266.141 192.198 267.747 190.449C268.282 190.045 267.479 189.237 267.078 189.776C261.19 195.563 254.5 200.544 247.409 204.851C245.402 206.062 243.395 207.139 241.254 208.216C240.719 208.485 241.254 209.427 241.789 209.158Z" fill="#606060"/>
<path d="M152.01 187.891C152.277 177.392 151.742 167.028 150.27 156.529C149.869 153.568 149.467 150.607 148.932 147.511C148.798 146.838 150.003 146.569 150.136 147.242C152.01 157.606 153.08 168.24 153.348 178.738C153.348 181.7 153.348 184.795 153.348 187.757C153.214 188.699 152.01 188.699 152.01 187.891Z" fill="#606060"/>
<path d="M143.58 206.331C136.221 202.563 129.264 197.852 122.841 192.468C120.968 190.987 119.229 189.372 117.623 187.622C117.088 187.218 117.891 186.411 118.292 186.949C124.179 192.737 130.869 197.717 137.961 202.024C139.968 203.236 141.975 204.312 144.115 205.389C144.651 205.793 144.115 206.735 143.58 206.331Z" fill="#606060"/>
<path d="M263.331 201.351L245.268 212.658C246.339 215.08 247.409 217.638 248.346 220.195C249.148 222.214 249.817 224.233 249.684 226.252C249.55 228.406 248.747 230.29 247.81 232.309C240.987 247.654 234.029 262.863 225.867 277.535C225.466 278.208 225.198 278.881 225.332 279.554C225.466 280.092 225.867 280.631 226.269 281.034C228.945 283.996 231.888 286.688 234.966 289.245C247.008 272.958 258.247 256.133 268.282 238.501C269.218 236.886 270.155 235.136 270.556 233.251C270.958 231.636 270.69 229.886 270.556 228.137C269.486 218.984 267.078 209.966 263.331 201.351Z" fill="#FF9670"/>
<path d="M225.6 279.823C226.536 279.15 227.339 278.477 228.276 277.669C235.233 268.382 241.789 258.422 247.141 248.327C250.353 242.404 252.761 235.943 253.43 229.213C254.099 222.618 251.958 216.83 249.684 210.773C249.55 210.504 249.55 210.369 249.416 210.1L245.268 212.658C246.339 215.08 247.409 217.638 248.346 220.195C249.148 222.214 249.817 224.233 249.684 226.252C249.55 228.406 248.747 230.29 247.81 232.309C240.987 247.654 234.029 262.863 225.867 277.535C225.466 278.208 225.198 278.881 225.332 279.554C225.466 279.688 225.466 279.823 225.6 279.823Z" fill="#FC7F51"/>
<path d="M165.523 140.377C170.608 134.32 175.023 127.456 181.178 122.476C182.248 121.668 183.72 120.86 184.791 121.668C183.988 124.36 180.509 126.244 181.044 128.936C181.178 129.879 181.847 130.686 182.516 131.494C183.586 132.84 184.791 134.186 185.861 135.532C186.262 135.936 186.664 136.474 186.798 137.012C186.931 137.551 186.798 138.224 186.664 138.762C185.46 142.666 181.178 144.55 177.565 146.704C170.206 151.28 164.988 158.548 161.108 166.086C157.094 173.624 154.017 181.565 149.601 188.968C145.453 195.833 140.235 201.89 134.616 207.677C131.672 210.639 128.595 213.6 124.714 215.484C121.771 216.83 117.489 217.234 115.75 214.542C114.813 213.061 114.947 211.177 115.081 209.562C116.419 200.14 120.031 190.987 125.651 183.18C136.355 168.509 158.7 150.472 165.523 140.377Z" fill="#FF9670"/>
<path d="M169.27 140.512C173.15 135.666 175.692 129.879 179.305 124.764C179.305 124.629 179.305 124.629 179.439 124.495C179.706 124.091 179.974 123.687 180.241 123.283C174.622 128.129 170.34 134.59 165.523 140.243C163.918 142.531 161.643 145.223 158.833 148.184C162.714 146.165 166.46 143.877 169.27 140.512Z" fill="#FC7F51"/>
<path d="M150.404 183.315C143.179 192.333 132.876 210.235 119.095 207.004C117.757 206.735 116.82 206.062 116.017 205.389C115.75 206.735 115.482 208.081 115.214 209.562C114.947 211.312 114.813 213.196 115.883 214.542C117.623 217.234 121.904 216.83 124.848 215.484C128.728 213.6 131.806 210.639 134.749 207.677C140.369 201.89 145.587 195.833 149.735 188.968C152.143 184.93 154.15 180.757 156.157 176.585C154.15 178.738 152.277 180.892 150.404 183.315Z" fill="#FC7F51"/>
<g opacity="0.45">
<g opacity="0.45">
<path opacity="0.45" d="M325.682 189.641C327.02 189.641 327.02 187.622 325.682 187.622C324.344 187.487 324.344 189.641 325.682 189.641Z" fill="white"/>
</g>
<g opacity="0.45">
<path opacity="0.45" d="M314.844 205.793C316.182 205.793 316.182 203.774 314.844 203.774C313.506 203.639 313.506 205.793 314.844 205.793Z" fill="white"/>
</g>
<g opacity="0.45">
<path opacity="0.45" d="M331.034 205.524C332.372 205.524 332.372 203.505 331.034 203.505C329.696 203.505 329.696 205.524 331.034 205.524Z" fill="white"/>
</g>
<g opacity="0.45">
<path opacity="0.45" d="M322.738 221.272C324.076 221.272 324.076 219.253 322.738 219.253C321.4 219.253 321.4 221.272 322.738 221.272Z" fill="white"/>
</g>
<g opacity="0.45">
<path opacity="0.45" d="M341.872 219.388C343.21 219.388 343.21 217.369 341.872 217.369C340.534 217.234 340.534 219.388 341.872 219.388Z" fill="white"/>
</g>
<g opacity="0.45">
<path opacity="0.45" d="M335.717 233.117C337.055 233.117 337.055 231.098 335.717 231.098C334.379 231.098 334.379 233.117 335.717 233.117Z" fill="white"/>
</g>
<g opacity="0.45">
<path opacity="0.45" d="M318.055 235.27C319.393 235.27 319.393 233.251 318.055 233.251C316.717 233.251 316.717 235.27 318.055 235.27Z" fill="white"/>
</g>
<g opacity="0.45">
<path opacity="0.45" d="M347.358 203.774C348.696 203.774 348.696 201.755 347.358 201.755C346.02 201.62 346.02 203.774 347.358 203.774Z" fill="white"/>
</g>
<g opacity="0.45">
<path opacity="0.45" d="M343.745 189.91C345.083 189.91 345.083 187.891 343.745 187.891C342.407 187.891 342.407 189.91 343.745 189.91Z" fill="white"/>
</g>
<g opacity="0.45">
<path opacity="0.45" d="M315.781 194.621C317.119 194.621 317.119 192.602 315.781 192.602C314.443 192.602 314.443 194.621 315.781 194.621Z" fill="white"/>
</g>
<g opacity="0.45">
<path opacity="0.45" d="M309.225 183.046C310.563 183.046 310.563 181.027 309.225 181.027C307.887 181.027 307.887 183.046 309.225 183.046Z" fill="white"/>
</g>
<g opacity="0.45">
<path opacity="0.45" d="M301.33 195.967C302.668 195.967 302.668 193.948 301.33 193.948C299.992 193.814 299.992 195.967 301.33 195.967Z" fill="white"/>
</g>
<g opacity="0.45">
<path opacity="0.45" d="M300.26 209.158C301.598 209.158 301.598 207.139 300.26 207.139C298.922 207.139 298.922 209.158 300.26 209.158Z" fill="white"/>
</g>
<g opacity="0.45">
<path opacity="0.45" d="M359.801 193.948C361.139 193.948 361.139 191.929 359.801 191.929C358.463 191.929 358.463 193.948 359.801 193.948Z" fill="white"/>
</g>
<g opacity="0.45">
<path opacity="0.45" d="M361.54 179.815C362.878 179.815 362.878 177.796 361.54 177.796C360.202 177.662 360.202 179.815 361.54 179.815Z" fill="white"/>
</g>
<g opacity="0.45">
<path opacity="0.45" d="M347.09 181.161C348.428 181.161 348.428 179.142 347.09 179.142C345.752 179.142 345.752 181.161 347.09 181.161Z" fill="white"/>
</g>
<g opacity="0.45">
<path opacity="0.45" d="M359.533 211.85C360.871 211.85 360.871 209.831 359.533 209.831C358.195 209.831 358.195 211.85 359.533 211.85Z" fill="white"/>
</g>
<g opacity="0.45">
<path opacity="0.45" d="M353.78 226.387C355.118 226.387 355.118 224.368 353.78 224.368C352.442 224.368 352.442 226.387 353.78 226.387Z" fill="white"/>
</g>
<g opacity="0.45">
<path opacity="0.45" d="M348.428 237.828C349.766 237.828 349.766 235.809 348.428 235.809C347.09 235.809 347.09 237.828 348.428 237.828Z" fill="white"/>
</g>
<g opacity="0.45">
<path opacity="0.45" d="M366.223 235.136C367.561 235.136 367.561 233.117 366.223 233.117C364.885 233.117 364.885 235.136 366.223 235.136Z" fill="white"/>
</g>
<g opacity="0.45">
<path opacity="0.45" d="M369.836 223.156C371.174 223.156 371.174 221.137 369.836 221.137C368.498 221.137 368.498 223.156 369.836 223.156Z" fill="white"/>
</g>
<g opacity="0.45">
<path opacity="0.45" d="M367.561 207.139C368.899 207.139 368.899 205.12 367.561 205.12C366.223 205.12 366.223 207.139 367.561 207.139Z" fill="white"/>
</g>
</g>
<path d="M356.456 150.203C356.724 152.491 356.456 154.914 355.653 157.202C355.386 157.875 356.456 158.145 356.59 157.472C357.393 155.183 357.66 152.626 357.393 150.203C357.393 149.934 357.125 149.665 356.857 149.665C356.724 149.665 356.322 149.934 356.456 150.203Z" fill="#606060"/>
<path d="M315.915 235.405C316.182 239.039 316.45 242.673 315.112 246.038C313.908 248.865 311.633 251.557 311.767 254.653C311.767 254.922 311.767 255.057 311.901 255.326C312.034 255.595 312.436 255.595 312.703 255.595C320.731 256.268 328.893 256.941 336.921 256.403C340.266 256.268 343.611 255.864 346.956 255.595C355.252 254.922 363.547 255.057 371.843 255.864C369.568 248.327 368.498 240.385 368.498 232.578" fill="#FF9670"/>
<path d="M315.781 243.481C323.809 243.75 332.238 242.943 340.132 242.539C349.498 242 359.266 241.327 368.097 238.097C368.23 238.097 368.364 237.962 368.498 237.962C368.364 236.078 368.364 234.194 368.364 232.309L315.915 235.405C316.048 238.097 316.316 240.924 315.781 243.481Z" fill="#FC7F51"/>
<path d="M337.858 479.031L338.393 454.803C335.717 454.668 333.175 454.534 330.499 454.399C328.224 454.399 326.083 454.534 323.943 454.265C325.682 466.513 327.154 478.089 327.154 482.127C327.154 487.242 324.745 493.568 324.745 493.568C338.527 500.163 338.259 490.337 337.992 486.299C337.858 484.011 337.858 481.588 337.858 479.031Z" fill="#FF9670"/>
<path d="M326.351 486.838C323.14 492.626 321.668 500.029 322.471 507.028C322.605 507.835 322.738 508.778 323.14 509.451C323.541 509.989 324.076 510.258 324.612 510.527C329.295 512.95 334.78 512.816 339.463 510.124C339.865 509.854 340.266 509.585 340.534 509.181C340.801 508.643 340.935 507.97 340.935 507.432C341.337 503.528 341.337 499.49 340.801 495.587" fill="#E59900"/>
<path d="M326.751 484.953C329.561 482.531 333.441 481.992 336.251 484.28C339.061 486.703 340.131 491.145 340.934 495.183C341.603 498.01 342.005 501.509 340.399 503.528C339.73 504.201 338.927 504.605 338.124 505.009C335.047 506.22 331.836 506.489 328.758 505.951C326.216 505.413 323.273 503.932 322.737 500.702C322.336 498.952 322.737 497.067 323.273 495.318C324.343 491.145 325.146 488.588 326.751 484.953Z" fill="#FEB405"/>
<path d="M327.421 498.548C328.09 498.548 328.09 497.471 327.421 497.471C326.752 497.471 326.752 498.548 327.421 498.548Z" fill="white"/>
<path d="M336.654 498.279C337.323 498.279 337.323 497.202 336.654 497.202C336.118 497.202 336.118 498.279 336.654 498.279Z" fill="white"/>
<path d="M329.562 498.413C331.302 498.144 332.907 498.144 334.647 498.279C334.914 498.279 335.182 498.01 335.182 497.74C335.182 497.471 334.914 497.202 334.647 497.202C332.907 497.067 331.302 497.067 329.562 497.337C329.295 497.337 329.027 497.606 329.027 497.875C329.027 498.144 329.295 498.413 329.562 498.413Z" fill="white"/>
<path d="M327.421 493.568C328.09 493.568 328.09 492.491 327.421 492.491C326.886 492.491 326.886 493.568 327.421 493.568Z" fill="white"/>
<path d="M336.654 493.299C337.323 493.299 337.323 492.222 336.654 492.222C336.118 492.222 336.118 493.299 336.654 493.299Z" fill="white"/>
<path d="M329.562 493.433C331.302 493.164 332.907 493.164 334.647 493.299C334.914 493.299 335.182 493.029 335.182 492.76C335.182 492.491 334.914 492.222 334.647 492.222C332.907 492.087 331.302 492.087 329.562 492.356C329.295 492.356 329.027 492.626 329.027 492.895C329.161 493.164 329.295 493.433 329.562 493.433Z" fill="white"/>
<path d="M327.421 488.453C328.09 488.453 328.09 487.376 327.421 487.376C326.886 487.376 326.886 488.453 327.421 488.453Z" fill="white"/>
<path d="M336.654 488.184C337.323 488.184 337.323 487.107 336.654 487.107C336.118 487.107 336.118 488.184 336.654 488.184Z" fill="white"/>
<path d="M329.562 488.318C331.302 488.049 332.907 488.049 334.647 488.184C334.914 488.184 335.182 487.915 335.182 487.645C335.182 487.376 334.914 487.107 334.647 487.107C332.907 486.972 331.302 486.972 329.562 487.242C329.295 487.242 329.027 487.511 329.027 487.78C329.161 488.049 329.295 488.318 329.562 488.318Z" fill="white"/>
<path d="M382.547 479.166L379.336 455.207C381.878 454.803 384.554 454.265 387.096 453.861C389.371 453.592 391.512 453.457 393.519 453.053C393.117 465.436 392.983 477.147 393.385 481.185C393.92 486.299 397.131 492.356 397.131 492.356C384.153 500.432 383.35 490.607 383.082 486.703C382.948 484.146 382.815 481.723 382.547 479.166Z" fill="#FF9670"/>
<path d="M394.722 485.626C398.602 491.01 400.877 498.144 400.877 505.278C400.877 506.22 400.877 507.028 400.476 507.835C400.208 508.374 399.673 508.778 399.138 509.047C394.722 512.008 389.236 512.412 384.286 510.393C383.884 510.258 383.483 509.989 383.082 509.585C382.68 509.181 382.546 508.508 382.413 507.835C381.61 503.932 381.208 499.894 381.208 495.991" fill="#E59900"/>
<path d="M394.188 483.742C391.11 481.588 387.23 481.454 384.688 484.146C382.279 486.838 381.61 491.414 381.209 495.587C380.941 498.413 380.808 502.048 382.681 503.797C383.35 504.47 384.153 504.74 385.089 505.009C388.167 505.816 391.512 505.816 394.455 504.874C396.997 504.067 399.673 502.182 399.941 498.952C400.075 497.067 399.54 495.318 398.871 493.568C397.265 489.664 396.328 487.242 394.188 483.742Z" fill="#FEB405"/>
<path d="M395.124 497.337C394.455 497.471 394.455 496.394 394.99 496.26C395.526 496.26 395.659 497.337 395.124 497.337Z" fill="white"/>
<path d="M385.892 498.144C385.223 498.279 385.223 497.202 385.758 497.067C386.293 497.067 386.427 498.144 385.892 498.144Z" fill="white"/>
<path d="M392.85 497.471C391.11 497.471 389.505 497.606 387.899 498.01C387.631 498.01 387.364 497.74 387.364 497.471C387.364 497.202 387.498 496.933 387.765 496.933C389.371 496.529 391.11 496.394 392.716 496.394C392.983 496.394 393.251 496.529 393.251 496.933C393.385 497.202 393.117 497.471 392.85 497.471Z" fill="white"/>
<path d="M394.455 492.356C393.92 492.491 393.786 491.414 394.321 491.28C394.99 491.28 395.124 492.356 394.455 492.356Z" fill="white"/>
<path d="M385.223 493.299C384.554 493.433 384.554 492.356 385.089 492.222C385.758 492.087 385.892 493.164 385.223 493.299Z" fill="white"/>
<path d="M392.314 492.491C390.575 492.491 388.969 492.626 387.364 493.029C387.096 493.029 386.829 492.76 386.829 492.491C386.829 492.222 386.962 491.953 387.23 491.953C388.836 491.549 390.575 491.414 392.181 491.414C392.448 491.414 392.716 491.549 392.716 491.953C392.716 492.222 392.582 492.491 392.314 492.491Z" fill="white"/>
<path d="M393.92 487.376C393.251 487.511 393.251 486.434 393.786 486.299C394.455 486.165 394.455 487.242 393.92 487.376Z" fill="white"/>
<path d="M384.688 488.184C384.019 488.318 384.019 487.242 384.554 487.107C385.089 486.972 385.223 488.049 384.688 488.184Z" fill="white"/>
<path d="M391.779 487.511C390.04 487.511 388.434 487.645 386.829 488.049C386.561 488.049 386.293 487.78 386.293 487.511C386.293 487.242 386.427 486.972 386.695 486.972C388.3 486.569 390.04 486.434 391.645 486.434C391.913 486.434 392.181 486.569 392.181 486.972C392.181 487.107 392.047 487.511 391.779 487.511Z" fill="white"/>
<path d="M311.633 213.465C308.957 219.118 304.943 228.675 302.802 234.463C301.999 236.751 301.063 239.174 301.464 241.597C301.732 243.481 302.668 245.096 303.605 246.711C310.429 258.556 318.055 269.997 326.619 280.631C327.154 281.304 327.689 281.977 327.555 282.784C327.555 283.323 327.154 283.861 326.886 284.399C325.414 286.553 324.076 288.572 322.605 290.726C322.337 291.129 322.069 291.533 321.668 291.533C321.267 291.533 320.865 291.264 320.598 290.86C313.774 282.784 306.816 274.708 299.992 266.632C294.908 260.71 289.824 254.787 286.077 247.923C285.007 245.904 283.936 243.75 283.803 241.462C283.669 239.712 284.07 237.962 284.472 236.213C287.549 223.156 292.366 210.639 298.922 199.063" fill="#FF9670"/>
<path d="M301.464 241.462C301.063 239.039 301.999 236.616 302.802 234.328C304.943 228.54 308.957 218.984 311.633 213.331L311.499 213.196C310.964 213.734 310.429 214.273 309.626 214.811C304.675 217.907 302.267 224.772 300.26 230.021C297.584 237.289 298.119 243.212 301.197 250.346C303.337 255.326 305.612 260.306 308.154 265.152C313.506 272.958 318.858 280.631 323.675 288.707C324.745 287.226 325.682 285.611 326.752 284.13C327.154 283.592 327.421 283.053 327.421 282.515C327.421 281.707 326.886 281.034 326.485 280.361C317.922 269.728 310.295 258.287 303.471 246.442C302.668 244.962 301.732 243.346 301.464 241.462Z" fill="#FC7F51"/>
<path d="M314.71 247.788C307.485 255.056 305.21 265.69 303.203 275.785C301.33 284.937 299.591 294.09 299.591 303.378C299.591 311.723 301.196 319.933 302.668 328.144C307.619 356.679 310.562 385.618 311.365 414.557C312.034 436.093 311.766 458.975 322.604 477.55C323.139 478.358 323.675 479.165 324.477 479.569C325.146 479.838 325.949 479.838 326.618 479.704C330.231 479.3 333.977 478.896 337.59 478.627C338.125 478.627 338.66 478.492 339.062 478.088C339.329 477.819 339.329 477.281 339.463 476.877C343.343 421.556 337.456 365.697 344.012 310.511C353.244 366.236 364.484 421.691 377.73 476.742C377.997 477.819 378.934 478.627 380.138 478.627C384.955 478.761 389.772 478.223 394.589 476.339C395.258 476.069 395.659 475.531 395.793 474.858C397.532 463.148 396.06 451.303 394.455 439.593C388.166 389.925 383.483 339.989 380.406 289.918C379.603 276.458 378.666 262.325 371.575 250.884C371.307 250.345 370.906 249.941 370.371 249.672C369.836 249.403 369.167 249.672 368.498 249.807C360.47 252.23 351.773 251.557 343.477 251.018C333.977 250.345 324.344 248.461 314.71 247.788Z" fill="#9F0031"/>
<path d="M341.47 344.162C340.668 350.353 339.597 356.545 338.928 362.737C337.189 379.292 336.654 395.983 336.386 412.673C336.118 428.421 336.654 444.708 334.513 460.456C333.576 467.59 331.302 474.993 326.351 479.839C326.485 479.839 326.485 479.839 326.619 479.839C330.231 479.435 333.978 479.031 337.59 478.762C338.125 478.762 338.661 478.627 339.062 478.223C339.33 477.954 339.33 477.416 339.463 477.012C342.675 432.729 339.463 388.311 341.47 344.162Z" fill="#9F0031"/>
<path d="M308.689 286.284C311.499 275.247 314.041 258.152 327.02 255.057C333.309 253.576 340.266 254.787 346.555 254.384C353.914 253.845 361.139 253.038 367.829 249.942C359.935 252.095 351.639 251.557 343.477 251.019C333.844 250.346 324.21 248.461 314.577 247.654C307.351 254.922 305.077 265.555 303.07 275.65C301.197 284.803 299.457 293.956 299.457 303.243C299.457 311.589 301.063 319.799 302.535 328.01C302.668 328.952 302.802 329.894 303.07 330.836C303.605 315.896 305.077 300.821 308.689 286.284Z" fill="#9F0031"/>
<path d="M394.455 439.593C390.307 406.885 386.829 373.908 384.019 341.066C384.153 346.719 384.153 352.507 383.885 358.16C383.082 373.908 382.146 389.522 383.35 405.27C384.554 421.153 387.096 436.901 388.167 452.784C388.836 461.668 389.505 471.09 384.955 478.493C388.167 478.223 391.378 477.55 394.589 476.339C395.258 476.07 395.659 475.531 395.793 474.858C397.533 463.148 395.927 451.303 394.455 439.593Z" fill="#9F0031"/>
<g opacity="0.75">
<g opacity="0.75">
<path opacity="0.75" d="M306.013 269.459C310.83 265.017 313.908 259.095 314.844 252.634C314.978 251.961 313.908 251.692 313.908 252.365C313.105 258.691 310.027 264.479 305.344 268.786C304.809 269.055 305.478 269.863 306.013 269.459Z" fill="white"/>
</g>
<g opacity="0.75">
<path opacity="0.75" d="M367.428 254.384C368.364 261.114 372.244 267.305 377.864 271.343C378.399 271.747 378.934 270.805 378.399 270.401C373.047 266.632 369.435 260.575 368.498 254.114C368.364 253.441 367.294 253.711 367.428 254.384Z" fill="white"/>
</g>
<g opacity="0.75">
<path opacity="0.75" d="M315.112 251.422C314.978 252.23 314.978 253.038 314.844 253.98C314.844 254.249 315.112 254.518 315.379 254.518C315.647 254.518 315.915 254.249 315.915 253.98C316.048 253.172 316.048 252.365 316.182 251.422C316.182 251.153 315.915 250.884 315.647 250.884C315.379 251.019 315.246 251.153 315.112 251.422Z" fill="white"/>
</g>
<g opacity="0.75">
<path opacity="0.75" d="M319.126 251.557C318.457 252.903 318.189 254.518 318.055 255.999C318.055 256.268 318.323 256.537 318.591 256.537C318.858 256.537 319.126 256.268 319.126 255.999C319.126 254.653 319.527 253.307 320.062 252.095C320.196 251.826 320.196 251.557 319.929 251.422C319.661 251.288 319.26 251.288 319.126 251.557Z" fill="white"/>
</g>
<g opacity="0.75">
<path opacity="0.75" d="M322.738 252.365C322.471 253.845 322.337 255.191 322.069 256.672C322.069 256.941 322.203 257.21 322.471 257.345C322.738 257.345 323.006 257.21 323.14 256.941C323.407 255.46 323.541 254.114 323.809 252.634C323.809 252.365 323.675 252.095 323.407 251.961C323.14 251.961 322.738 252.095 322.738 252.365Z" fill="white"/>
</g>
<g opacity="0.75">
<path opacity="0.75" d="M325.682 253.172C325.548 254.114 325.414 255.057 325.548 256.133C325.548 256.403 325.816 256.672 326.083 256.672C326.351 256.672 326.619 256.403 326.619 256.133C326.619 255.73 326.619 255.191 326.619 254.787C326.619 254.518 326.619 254.384 326.619 254.114C326.619 253.98 326.619 253.845 326.619 253.845V253.711C326.619 253.576 326.619 253.576 326.619 253.441C326.619 253.172 326.485 252.903 326.217 252.768C326.083 252.634 325.816 252.768 325.682 253.172Z" fill="white"/>
</g>
<g opacity="0.75">
<path opacity="0.75" d="M328.358 253.307C328.358 254.384 328.492 255.46 328.492 256.537C328.492 256.806 328.759 257.076 329.027 257.076C329.295 257.076 329.562 256.806 329.562 256.537C329.562 255.46 329.428 254.384 329.428 253.307C329.428 253.038 329.161 252.768 328.893 252.768C328.626 252.768 328.358 252.903 328.358 253.307Z" fill="white"/>
</g>
<g opacity="0.75">
<path opacity="0.75" d="M332.104 253.307C331.971 254.384 331.837 255.46 331.569 256.403C331.569 256.672 331.703 256.941 331.971 257.076C332.238 257.076 332.506 256.941 332.64 256.672C332.773 255.595 332.907 254.518 333.175 253.576C333.175 253.307 333.041 253.038 332.773 252.903C332.506 252.768 332.104 252.903 332.104 253.307Z" fill="white"/>
</g>
<g opacity="0.75">
<path opacity="0.75" d="M335.182 253.172C335.048 254.653 335.048 256.268 335.182 257.749C335.182 258.018 335.449 258.287 335.717 258.287C335.985 258.287 336.252 258.018 336.252 257.749C336.118 256.268 336.118 254.653 336.252 253.172C336.252 252.903 335.985 252.634 335.717 252.634C335.316 252.634 335.182 252.903 335.182 253.172Z" fill="white"/>
</g>
<g opacity="0.75">
<path opacity="0.75" d="M338.794 253.845C338.661 255.326 338.661 256.806 338.661 258.287C338.661 258.96 339.731 258.96 339.731 258.287C339.731 256.806 339.731 255.326 339.865 253.845C339.865 253.576 339.597 253.307 339.33 253.307C338.928 253.307 338.794 253.576 338.794 253.845Z" fill="white"/>
</g>
<g opacity="0.75">
<path opacity="0.75" d="M341.738 254.249C341.738 255.864 341.872 257.345 341.872 258.96C341.872 259.633 342.942 259.633 342.942 258.96C342.942 257.345 342.808 255.864 342.808 254.249C342.808 253.576 341.738 253.576 341.738 254.249Z" fill="white"/>
</g>
<g opacity="0.75">
<path opacity="0.75" d="M345.886 254.384C345.886 255.595 345.886 256.941 346.02 258.152C346.02 258.422 346.287 258.691 346.555 258.691C346.822 258.691 347.09 258.422 347.09 258.152C346.956 256.941 346.956 255.595 346.956 254.384C346.956 254.114 346.689 253.845 346.421 253.845C346.153 253.845 345.886 254.114 345.886 254.384Z" fill="white"/>
</g>
<g opacity="0.75">
<path opacity="0.75" d="M349.231 254.653C349.231 255.999 349.231 257.21 349.365 258.556C349.365 258.825 349.632 259.095 349.9 259.095C350.167 259.095 350.435 258.825 350.435 258.556C350.301 257.21 350.301 255.999 350.301 254.653C350.301 254.384 350.034 254.114 349.766 254.114C349.498 254.114 349.365 254.384 349.231 254.653Z" fill="white"/>
</g>
<g opacity="0.75">
<path opacity="0.75" d="M352.174 253.98C352.174 255.326 352.174 256.672 352.174 258.018C352.174 258.691 353.245 258.691 353.245 258.018C353.245 256.672 353.245 255.326 353.245 253.98C353.245 253.307 352.174 253.307 352.174 253.98Z" fill="white"/>
</g>
<g opacity="0.75">
<path opacity="0.75" d="M355.252 254.249C355.252 255.73 355.519 257.21 355.653 258.691C355.653 258.96 356.055 259.095 356.322 259.095C356.59 258.96 356.724 258.691 356.724 258.422C356.456 257.076 356.322 255.595 356.322 254.249C356.322 253.98 356.055 253.711 355.787 253.711C355.386 253.711 355.118 253.98 355.252 254.249Z" fill="white"/>
</g>
<g opacity="0.75">
<path opacity="0.75" d="M358.195 255.191C358.463 256.403 358.864 257.614 359.266 258.691C359.4 258.96 359.667 259.095 359.935 259.095C360.202 259.095 360.336 258.691 360.336 258.422C359.801 257.345 359.533 256.133 359.266 254.922C359.266 254.653 358.864 254.518 358.597 254.518C358.329 254.653 358.195 254.922 358.195 255.191Z" fill="white"/>
</g>
<g opacity="0.75">
<path opacity="0.75" d="M361.54 253.98C361.942 255.46 362.343 257.076 362.477 258.691C362.477 258.96 362.878 259.095 363.146 259.095C363.414 258.96 363.547 258.691 363.547 258.422C363.28 256.806 363.012 255.326 362.611 253.711C362.477 253.172 361.407 253.441 361.54 253.98Z" fill="white"/>
</g>
<g opacity="0.75">
<path opacity="0.75" d="M365.421 253.711C365.421 255.326 365.822 256.806 366.357 258.287C366.491 258.556 366.892 258.556 367.026 258.422C367.294 258.287 367.294 258.018 367.16 257.749C366.625 256.537 366.357 255.057 366.357 253.711C366.491 253.038 365.421 253.038 365.421 253.711Z" fill="white"/>
</g>
<g opacity="0.75">
<path opacity="0.75" d="M369.435 252.634C369.836 253.711 370.237 254.653 370.639 255.73C370.773 255.999 371.04 256.133 371.308 256.133C371.575 255.999 371.709 255.73 371.709 255.46C371.308 254.384 370.906 253.441 370.505 252.365C370.371 252.095 370.104 251.961 369.836 251.961C369.568 252.095 369.301 252.365 369.435 252.634Z" fill="white"/>
</g>
<g opacity="0.75">
<path opacity="0.75" d="M345.217 261.517C346.02 269.728 346.02 278.073 345.217 286.418C345.217 286.553 345.351 286.822 345.484 286.822C346.956 287.495 348.696 287.091 349.766 286.015C351.104 284.803 351.505 282.919 351.639 281.169C351.907 279.015 351.773 276.727 351.639 274.574C351.505 272.42 351.372 270.132 351.104 267.978C350.836 265.421 350.569 262.998 350.167 260.575C350.034 259.902 349.097 260.171 349.231 260.844C349.9 265.825 350.435 270.805 350.703 275.785C350.836 278.073 350.97 280.496 350.301 282.784C349.766 284.669 348.027 286.957 345.886 286.015C346.02 286.149 346.02 286.284 346.153 286.418C346.956 278.073 346.956 269.863 346.153 261.517C346.287 260.844 345.217 260.844 345.217 261.517Z" fill="white"/>
</g>
<g opacity="0.75">
<path opacity="0.75" d="M345.484 284.669C345.351 291.399 344.815 298.263 344.146 304.993C343.879 306.878 343.745 308.897 343.477 310.781C343.477 311.319 344.414 311.319 344.548 310.781C345.484 304.051 346.02 297.321 346.421 290.456C346.555 288.572 346.555 286.553 346.689 284.669C346.555 284.265 345.484 284.265 345.484 284.669Z" fill="white"/>
</g>
<g opacity="0.75">
<path opacity="0.75" d="M305.077 268.92C304.14 275.92 303.07 282.919 302.133 289.918C301.197 296.783 300.795 303.647 301.464 310.646C302.133 317.511 303.337 324.376 304.274 331.24C305.344 338.374 306.281 345.508 307.218 352.642C309.091 366.64 310.696 380.773 312.034 394.906C313.372 409.039 314.443 423.172 315.246 437.305C315.647 444.17 315.647 451.034 316.584 457.764C316.985 460.995 317.788 464.09 318.858 467.186C319.929 470.282 321.4 473.109 322.605 476.204C323.14 477.685 323.675 479.166 324.21 480.646C324.344 481.319 325.414 481.05 325.147 480.377C323.407 474.185 319.929 468.532 318.457 462.341C316.851 455.745 316.985 448.881 316.584 442.151C315.915 428.018 314.844 414.019 313.506 400.021C312.168 386.022 310.696 372.159 308.957 358.16C307.218 344.296 305.211 330.567 303.204 316.838C302.133 309.839 301.732 302.84 302.401 295.706C303.07 288.572 304.274 281.573 305.211 274.439C305.478 272.689 305.746 270.939 305.88 269.19C306.147 268.517 305.211 268.247 305.077 268.92Z" fill="white"/>
</g>
<g opacity="0.75">
<path opacity="0.75" d="M394.455 473.916C391.512 447.535 388.568 421.018 385.491 394.637C384.019 381.581 382.279 368.524 381.343 355.334C380.406 342.143 380.272 328.952 379.871 315.761C379.47 300.821 378.934 285.745 378.533 270.805C378.533 270.132 377.596 270.132 377.596 270.805C377.998 284.13 378.399 297.59 378.801 310.916C379.202 324.106 379.336 337.297 380.139 350.488C380.941 363.679 382.681 376.735 384.019 389.791C385.491 402.982 386.962 416.038 388.434 429.229C390.174 444.17 391.779 458.976 393.519 473.916C393.519 474.589 394.455 474.589 394.455 473.916Z" fill="white"/>
</g>
</g>
<path d="M369.702 150.472C368.899 148.319 367.561 146.165 367.695 143.877C367.695 142.531 368.364 141.185 368.899 139.839C370.505 135.532 371.04 130.417 368.498 126.514C367.16 124.495 365.287 123.149 364.216 120.995C363.012 118.707 363.012 116.015 362.343 113.457C361.407 109.689 358.998 106.324 355.653 104.17C354.717 103.497 353.646 103.093 352.576 102.689C353.914 99.7282 353.914 96.2286 352.576 93.2674C350.836 89.6332 347.358 87.0758 343.477 86.1336C339.597 85.1914 335.449 85.5952 331.703 86.9412C328.224 88.1526 325.147 90.3062 322.872 93.1328C320.731 96.094 319.527 99.8628 320.33 103.497C320.731 105.112 321.4 106.593 322.471 107.804C319.126 110.631 316.45 113.996 315.915 118.303C315.513 120.995 316.048 123.822 315.379 126.379C314.175 131.225 309.358 134.186 306.682 138.493C302.802 144.685 304.274 153.299 309.225 158.548C314.175 163.932 321.936 165.951 329.027 165.144C331.703 164.875 334.245 164.202 336.921 163.932C345.217 163.259 353.512 167.297 361.674 165.548C363.547 165.144 365.421 164.471 366.759 163.259C368.097 162.048 369.033 160.433 369.568 158.818C370.639 156.126 370.639 153.164 369.702 150.472Z" fill="#6E2501"/>
<path d="M365.019 170.662C355.386 168.778 351.104 163.394 351.104 163.394C348.16 155.856 349.766 149.261 350.569 146.569C344.682 146.3 338.661 146.3 332.773 145.896C332.104 145.896 331.569 145.761 331.034 145.627C331.703 147.107 334.245 154.645 330.9 163.394C330.9 163.394 326.619 168.778 316.985 170.662C307.351 172.547 303.07 176.719 303.07 181.834C303.07 185.872 329.83 185.738 340.935 185.603C352.041 185.872 378.801 185.872 378.801 181.834C378.934 176.719 374.787 172.547 365.019 170.662Z" fill="#FF9670"/>
<path d="M332.64 151.011C333.978 153.164 339.597 155.183 342.006 155.453C345.083 155.856 348.16 155.183 349.365 152.895C349.097 148.723 349.9 148.453 350.569 146.704C344.682 146.434 338.661 146.434 332.773 146.031C332.104 146.031 331.569 145.896 331.034 145.761C331.302 146.434 331.837 148.05 332.238 150.203C332.64 150.607 332.372 150.472 332.64 151.011Z" fill="#FC7F51"/>
<path d="M325.816 132.301C325.281 131.494 324.612 130.821 323.809 130.282C323.006 129.744 321.936 129.475 320.999 129.879C320.062 130.148 319.393 130.955 319.126 131.763C318.724 132.571 318.724 133.513 318.858 134.455C319.126 136.07 319.929 137.685 321.4 138.493C322.872 139.301 324.879 138.897 325.682 137.416C326.217 136.474 326.217 135.263 325.95 134.186" fill="#FF9670"/>
<path d="M324.344 132.974C324.21 132.705 323.943 132.436 323.675 132.301C323.407 132.167 323.006 132.032 322.738 132.167C322.471 132.301 322.203 132.571 322.069 132.84C321.936 133.109 321.936 133.513 321.936 133.782C322.069 134.32 322.337 134.993 322.872 135.128C323.407 135.397 324.076 135.263 324.344 134.724C324.478 134.455 324.478 133.917 324.478 133.647" fill="#FC7F51"/>
<path d="M354.717 131.763C355.252 130.955 355.921 130.282 356.724 129.744C357.526 129.206 358.597 128.936 359.533 129.34C360.47 129.609 361.139 130.417 361.407 131.225C361.808 132.032 361.808 132.974 361.674 133.917C361.407 135.532 360.604 137.147 359.132 137.955C357.66 138.762 355.653 138.358 354.85 136.878C354.315 135.936 354.315 134.724 354.583 133.647" fill="#FF9670"/>
<path d="M356.188 132.436C356.322 132.167 356.59 131.898 356.857 131.763C357.125 131.628 357.526 131.494 357.794 131.628C358.062 131.763 358.329 132.032 358.463 132.301C358.597 132.571 358.597 132.974 358.597 133.244C358.463 133.782 358.195 134.455 357.66 134.59C357.125 134.859 356.456 134.724 356.188 134.186C356.055 133.917 356.055 133.378 356.055 133.109" fill="#FC7F51"/>
<path d="M324.344 117.226C322.738 125.033 323.274 133.378 325.95 140.916C326.752 143.204 327.689 145.492 329.295 147.377C330.9 149.396 333.041 150.876 335.182 152.222C336.52 153.03 337.992 153.703 339.597 154.107C342.675 154.78 345.886 153.837 348.428 151.953C350.97 150.069 352.174 148.723 353.914 145.358C355.118 143.069 355.653 140.512 356.188 137.955C356.857 134.59 357.259 130.282 357.125 126.783C357.125 124.764 356.724 122.745 356.322 120.726C355.519 116.553 354.449 111.977 351.104 109.419C347.491 106.593 342.407 106.997 337.992 108.208" fill="#FF9670"/>
<path d="M325.682 136.339C325.548 138.089 327.154 139.57 329.428 139.839C331.703 140.108 333.71 138.897 333.844 137.147C333.978 135.397 332.372 133.917 330.097 133.647C327.823 133.513 325.816 134.724 325.682 136.339Z" fill="#FC7F51"/>
<path d="M354.583 136.474C354.984 138.089 353.512 139.839 351.372 140.512C349.097 141.05 347.09 140.243 346.689 138.493C346.287 136.878 347.759 135.128 349.9 134.455C352.041 134.051 354.181 134.859 354.583 136.474Z" fill="#FC7F51"/>
<path d="M332.773 123.956C330.231 123.956 327.154 124.225 325.95 125.706C325.414 126.514 324.612 126.379 325.147 125.571C326.886 123.149 329.295 122.745 332.907 122.341C333.309 122.341 333.71 122.745 333.576 123.149C333.576 123.687 333.175 124.091 332.773 123.956Z" fill="#6E2501"/>
<path d="M329.83 129.744C330.097 130.821 330.9 131.628 331.837 131.359C332.773 131.225 333.309 130.148 333.041 129.071C332.773 127.994 331.971 127.187 331.034 127.456C330.231 127.59 329.562 128.667 329.83 129.744Z" fill="#2D0E0B"/>
<path d="M347.09 123.956C349.632 123.956 352.71 124.225 353.914 125.706C354.449 126.514 355.252 126.379 354.717 125.571C352.977 123.149 350.569 122.745 346.956 122.341C346.555 122.341 346.153 122.745 346.287 123.149C346.287 123.687 346.689 124.091 347.09 123.956Z" fill="#6E2501"/>
<path d="M350.034 129.744C349.766 130.821 348.963 131.628 348.027 131.359C347.09 131.225 346.555 130.148 346.822 129.071C347.09 127.994 347.893 127.187 348.829 127.456C349.632 127.59 350.167 128.667 350.034 129.744Z" fill="#2D0E0B"/>
<path d="M341.337 135.936C342.006 135.801 342.541 135.532 343.076 135.128C341.203 133.513 340.4 131.628 340.668 129.206C340.668 128.936 340.801 128.398 341.203 128.398C341.47 128.398 341.337 129.206 341.337 129.609C341.337 132.571 342.541 133.378 344.548 134.859C344.815 134.993 344.815 135.532 344.548 135.666C343.745 136.339 342.808 136.878 341.738 137.147C340.935 137.147 340.534 136.07 341.337 135.936Z" fill="#F46E45"/>
<path d="M345.484 142.127C345.484 142.127 341.337 142.127 336.52 142.935C336.52 142.935 342.407 146.973 345.484 142.127Z" fill="#E53E3E"/>
<path d="M340.4 101.613C334.513 100.805 328.626 104.17 325.147 109.016C321.668 113.861 320.464 120.053 320.598 125.975C320.598 126.11 320.598 126.244 320.731 126.379C320.865 126.648 321.267 126.514 321.534 126.379C324.478 125.302 327.288 123.822 330.231 123.014C332.773 122.341 335.449 122.072 338.125 122.341C338.661 122.341 339.196 122.476 339.463 122.072C339.731 121.803 339.731 121.533 339.865 121.13C340.266 118.438 340.668 115.746 341.069 113.054C342.808 115.746 343.611 118.841 343.477 122.072C343.477 122.476 343.477 122.745 343.745 123.014C343.879 123.149 344.146 123.149 344.414 123.149C345.484 123.149 346.421 123.283 347.491 123.283C348.027 123.283 348.562 123.283 348.829 123.014C349.097 122.745 349.231 122.206 349.231 121.803C349.231 120.457 349.365 118.976 349.365 117.63C350.97 119.514 352.174 121.803 352.977 124.225C354.984 125.033 357.125 125.706 359.132 126.514C359.266 126.514 359.533 126.648 359.667 126.648C360.202 126.648 360.604 125.975 360.738 125.437C361.674 121.399 360.604 117.226 358.998 113.457C356.322 107.535 351.238 102.42 344.949 101.074" fill="#6E2501"/>
<path d="M337.992 101.613C333.576 105.381 330.365 110.362 328.759 115.88C328.626 116.419 329.562 116.688 329.696 116.149C331.302 110.765 334.379 105.92 338.661 102.286C339.196 102.016 338.527 101.209 337.992 101.613Z" fill="#561C02"/>
<path d="M339.597 102.689C337.992 105.651 336.787 108.746 335.985 111.977C335.851 112.65 336.787 112.784 336.921 112.246C337.59 109.016 338.794 106.054 340.4 103.093C340.668 102.555 339.865 102.151 339.597 102.689Z" fill="#561C02"/>
<path d="M342.808 103.497C345.217 105.92 346.956 108.881 347.759 112.246C347.893 112.784 348.829 112.65 348.696 111.977C347.893 108.477 346.02 105.247 343.477 102.824C343.076 102.286 342.407 102.959 342.808 103.497Z" fill="#561C02"/>
<path d="M346.421 103.632C351.907 106.324 355.653 111.977 356.055 118.034C356.055 118.707 356.991 118.707 356.991 118.034C356.59 111.573 352.71 105.651 346.956 102.824C346.287 102.555 345.886 103.362 346.421 103.632Z" fill="#561C02"/>
<path d="M328.224 103.362C327.689 101.343 327.421 99.1898 328.09 97.1708C328.759 95.5556 330.231 94.2096 331.971 94.3442C332.907 94.3442 333.71 94.8826 334.647 94.748C335.316 94.6134 335.851 94.2096 336.252 93.6712C337.189 92.4598 337.456 90.9792 338.661 89.9024C340.132 88.8256 342.006 88.4218 343.745 89.0948C344.28 89.364 344.548 88.4218 344.013 88.1526C342.407 87.4796 340.668 87.7488 339.196 88.4218C338.393 88.8256 337.724 89.364 337.189 90.037C336.654 90.71 336.386 91.383 335.985 92.1906C335.583 92.8636 335.182 93.8058 334.245 93.8058C333.309 93.8058 332.372 93.2674 331.302 93.402C329.562 93.5366 328.09 94.8826 327.288 96.3632C326.217 98.6514 326.619 101.209 327.154 103.632C327.421 104.305 328.358 104.035 328.224 103.362Z" fill="#561C02"/>
<path d="M343.076 94.6134C344.28 94.075 345.618 94.2096 346.689 94.8826C347.759 95.5556 348.562 96.4978 348.963 97.7092C349.231 98.2476 350.167 97.9784 349.9 97.44C349.365 96.094 348.428 94.748 347.09 93.9404C345.752 93.1328 344.013 92.9982 342.541 93.6712C342.006 94.075 342.541 94.8826 343.076 94.6134Z" fill="#561C02"/>
<path d="M357.393 120.322C361.005 123.552 362.745 128.533 361.808 133.244C361.273 136.07 359.533 138.628 359.533 141.589C359.533 142.935 359.935 144.146 360.604 145.223C361.273 146.3 362.209 147.242 362.878 148.319C364.484 150.876 365.153 154.107 364.618 157.068C364.484 157.741 365.421 157.875 365.554 157.337C365.956 154.645 365.688 151.953 364.618 149.53C364.083 148.319 363.28 147.107 362.477 146.031C361.54 144.954 360.738 143.742 360.604 142.262C360.336 139.166 362.209 136.474 362.878 133.513C363.414 131.09 363.28 128.667 362.611 126.379C361.808 123.687 360.336 121.399 358.329 119.514C357.526 119.245 356.857 119.918 357.393 120.322Z" fill="#561C02"/>
<path d="M322.203 118.303C320.464 119.918 319.126 121.937 318.323 124.091C317.386 126.514 317.253 129.071 317.119 131.763C317.119 133.109 316.985 134.455 316.717 135.801C316.45 137.147 315.915 138.358 315.246 139.435C314.041 141.723 312.837 143.877 312.436 146.434C311.901 149.261 312.168 152.357 313.239 155.049C313.506 155.587 314.443 155.318 314.175 154.78C313.239 152.357 312.971 149.799 313.239 147.242C313.64 144.685 314.71 142.531 315.915 140.243C316.45 139.166 316.985 138.089 317.386 137.012C317.788 135.801 317.922 134.455 318.055 133.244C318.189 130.686 318.189 128.129 318.858 125.571C319.527 123.014 320.999 120.726 322.872 118.976C323.407 118.572 322.605 117.899 322.203 118.303Z" fill="#561C02"/>
<path d="M323.675 153.703C321.668 150.876 321.936 147.377 323.006 144.146C323.274 143.608 322.337 143.339 322.069 143.877C320.865 147.242 320.598 151.145 322.738 154.107C323.14 154.645 323.943 154.241 323.675 153.703Z" fill="#561C02"/>
<path d="M304.675 176.989C304.675 176.989 337.189 186.411 369.836 172.008C369.836 172.008 375.857 172.278 378.934 177.123C382.012 181.969 393.92 204.043 393.92 204.043L374.653 216.426C374.653 216.426 373.181 230.021 371.843 237.962C371.843 237.962 329.562 243.481 314.175 237.962C314.175 237.962 311.232 219.791 310.964 216.023L292.366 209.562C292.098 209.427 299.992 181.834 304.675 176.989Z" fill="#FAD3D1"/>
<path d="M382.279 182.911C383.751 192.064 378.801 198.794 375.054 207.408C370.773 217.099 369.301 225.445 358.731 229.886C349.231 233.924 337.055 236.213 326.752 236.078C320.33 236.078 315.915 233.924 312.837 230.021C313.506 234.194 314.041 237.693 314.041 237.693C329.562 243.212 371.709 237.693 371.709 237.693C373.047 229.752 374.519 216.157 374.519 216.157L393.786 203.774C393.92 203.909 386.962 191.122 382.279 182.911Z" fill="#FAD3D1"/>
<path d="M306.281 186.814C311.098 182.373 317.52 181.161 323.809 180.892C329.027 180.623 334.111 180.219 339.062 179.681C319.393 181.296 304.675 177.123 304.675 177.123C301.063 180.757 295.577 197.986 293.302 205.658C297.049 199.063 300.929 191.795 306.281 186.814Z" fill="#FAD3D1"/>
<path d="M365.019 173.624C365.019 171.47 363.28 169.72 361.273 168.643C359.266 167.567 358.062 167.028 356.188 165.951C354.181 164.875 351.505 161.913 351.639 159.894C351.773 158.952 352.041 157.472 352.442 156.664C353.245 155.049 353.512 153.972 354.315 152.357C354.717 151.549 356.857 149.396 356.991 148.588C357.259 146.704 356.055 146.3 355.252 144.55C354.315 142.666 352.308 141.32 351.238 139.301C351.104 139.031 350.97 138.628 350.97 138.224C351.238 137.416 352.442 137.685 353.245 138.089C355.921 139.57 358.597 141.185 361.005 143.069C363.681 145.088 366.223 147.511 367.829 150.472C368.899 152.491 369.568 154.78 370.371 156.933C371.977 160.837 372.78 165.278 374.92 168.913C378.801 175.508 382.948 186.545 385.892 193.41C387.498 197.313 388.836 199.332 389.772 203.505C390.441 206.466 391.913 211.446 392.181 214.542C392.448 219.388 392.716 220.599 391.645 224.637C390.976 227.329 389.638 228.944 386.695 229.213C384.42 229.348 380.808 225.848 379.47 224.099C373.984 217.099 372.111 211.715 370.104 203.236C367.829 194.89 365.822 182.373 365.019 173.624Z" fill="#FF9670"/>
<path d="M353.914 140.377C355.787 143.877 360.336 145.088 363.414 147.242C365.287 148.453 366.892 149.934 368.364 151.415C368.23 151.145 368.097 150.742 367.963 150.472C366.357 147.511 363.815 145.223 361.139 143.069C358.731 141.185 356.188 139.57 353.379 138.089C352.843 137.82 352.174 137.685 351.639 137.82C352.442 138.358 353.245 139.166 353.914 140.377Z" fill="#FC7F51"/>
<path d="M384.42 220.33C378.132 216.965 375.589 209.831 373.449 203.505C370.773 195.833 369.033 187.622 365.688 180.219C366.759 187.891 368.364 196.909 369.97 203.37C372.111 211.85 373.85 217.234 379.336 224.233C380.674 225.848 384.42 229.483 386.561 229.348C389.505 229.079 390.843 227.464 391.512 224.772C391.913 223.156 392.181 222.08 392.314 221.003C390.04 221.81 387.23 221.81 384.42 220.33Z" fill="#FC7F51"/>
</svg>
