<svg width="86" height="33" viewBox="0 0 86 33" fill="none" xmlns="http://www.w3.org/2000/svg">
<g filter="url(#filter0_i_2_2)">
<path d="M11.016 16.4C12.36 16.4 13.384 16.096 14.088 15.488C14.824 14.848 15.192 13.888 15.192 12.608C15.192 11.392 14.808 10.464 14.04 9.824C13.304 9.152 12.216 8.816 10.776 8.816C10.264 8.816 9.832 8.832 9.48 8.864C9.16 8.864 8.824 8.896 8.472 8.96V16.4H11.016ZM8.52 31.808C8.168 31.904 7.608 32 6.84 32.096C6.104 32.192 5.368 32.24 4.632 32.24C3.896 32.24 3.24 32.176 2.664 32.048C2.12 31.952 1.656 31.76 1.272 31.472C0.888 31.184 0.6 30.784 0.408 30.272C0.216 29.76 0.12 29.088 0.12 28.256V5.648C0.12 4.976 0.296 4.464 0.648 4.112C1.032 3.728 1.544 3.424 2.184 3.2C3.272 2.816 4.504 2.544 5.88 2.384C7.288 2.192 8.696 2.096 10.104 2.096C14.52 2.096 17.896 3.04 20.232 4.928C22.568 6.816 23.736 9.376 23.736 12.608C23.736 14.176 23.48 15.6 22.968 16.88C22.488 18.128 21.752 19.216 20.76 20.144C19.8 21.04 18.568 21.744 17.064 22.256C15.592 22.736 13.88 22.976 11.928 22.976H8.52V31.808ZM35.6906 31.952C35.3386 32.016 34.8106 32.096 34.1066 32.192C33.4346 32.32 32.7466 32.384 32.0426 32.384C31.3386 32.384 30.6986 32.336 30.1226 32.24C29.5786 32.144 29.1146 31.952 28.7306 31.664C28.3466 31.376 28.0426 30.992 27.8186 30.512C27.6266 30 27.5306 29.344 27.5306 28.544V0.704C27.8826 0.639998 28.3946 0.559999 29.0666 0.464C29.7706 0.335999 30.4746 0.271999 31.1786 0.271999C31.8826 0.271999 32.5066 0.319999 33.0506 0.415998C33.6266 0.511998 34.1066 0.703999 34.4906 0.991999C34.8746 1.28 35.1626 1.68 35.3546 2.192C35.5786 2.672 35.6906 3.312 35.6906 4.112V31.952ZM40.8398 9.008C41.1598 8.912 41.6558 8.816 42.3278 8.72C43.0318 8.624 43.7518 8.576 44.4878 8.576C45.1918 8.576 45.8158 8.624 46.3598 8.72C46.9358 8.816 47.4158 9.008 47.7998 9.296C48.1838 9.584 48.4718 9.984 48.6638 10.496C48.8878 10.976 48.9998 11.616 48.9998 12.416V22.736C48.9998 24.048 49.3198 24.992 49.9598 25.568C50.5998 26.112 51.5278 26.384 52.7438 26.384C53.4798 26.384 54.0718 26.32 54.5198 26.192C54.9998 26.064 55.3678 25.936 55.6238 25.808V9.008C55.9438 8.912 56.4398 8.816 57.1118 8.72C57.8158 8.624 58.5358 8.576 59.2718 8.576C59.9758 8.576 60.5998 8.624 61.1438 8.72C61.7198 8.816 62.1998 9.008 62.5837 9.296C62.9678 9.584 63.2558 9.984 63.4478 10.496C63.6718 10.976 63.7838 11.616 63.7838 12.416V27.008C63.7838 28.608 63.1118 29.808 61.7678 30.608C60.6478 31.312 59.3038 31.84 57.7358 32.192C56.1998 32.576 54.5198 32.768 52.6958 32.768C50.9678 32.768 49.3678 32.576 47.8958 32.192C46.4558 31.808 45.2078 31.216 44.1518 30.416C43.0958 29.616 42.2798 28.592 41.7038 27.344C41.1278 26.064 40.8398 24.528 40.8398 22.736V9.008ZM76.9373 31.952C76.6173 32.048 76.1053 32.144 75.4013 32.24C74.7293 32.336 74.0253 32.384 73.2893 32.384C72.5853 32.384 71.9453 32.336 71.3693 32.24C70.8253 32.144 70.3613 31.952 69.9773 31.664C69.5933 31.376 69.2893 30.992 69.0653 30.512C68.8733 30 68.7773 29.344 68.7773 28.544V14.144C68.7773 13.408 68.9053 12.784 69.1613 12.272C69.4493 11.728 69.8493 11.248 70.3613 10.832C70.8733 10.416 71.4973 10.048 72.2333 9.728C73.0013 9.376 73.8173 9.072 74.6813 8.816C75.5453 8.56 76.4413 8.368 77.3693 8.24C78.2973 8.08 79.2253 8 80.1533 8C81.6893 8 82.9053 8.304 83.8013 8.912C84.6973 9.488 85.1453 10.448 85.1453 11.792C85.1453 12.24 85.0813 12.688 84.9533 13.136C84.8253 13.552 84.6653 13.936 84.4733 14.288C83.8013 14.288 83.1133 14.32 82.4093 14.384C81.7053 14.448 81.0173 14.544 80.3453 14.672C79.6733 14.8 79.0333 14.944 78.4253 15.104C77.8493 15.232 77.3533 15.392 76.9373 15.584V31.952Z" fill="#AECA9F"/>
</g>
<defs>
<filter id="filter0_i_2_2" x="0.119995" y="0.272003" width="85.0253" height="33.496" filterUnits="userSpaceOnUse" color-interpolation-filters="sRGB">
<feFlood flood-opacity="0" result="BackgroundImageFix"/>
<feBlend mode="normal" in="SourceGraphic" in2="BackgroundImageFix" result="shape"/>
<feColorMatrix in="SourceAlpha" type="matrix" values="0 0 0 0 0 0 0 0 0 0 0 0 0 0 0 0 0 0 127 0" result="hardAlpha"/>
<feOffset dy="1"/>
<feGaussianBlur stdDeviation="0.5"/>
<feComposite in2="hardAlpha" operator="arithmetic" k2="-1" k3="1"/>
<feColorMatrix type="matrix" values="0 0 0 0 0 0 0 0 0 0 0 0 0 0 0 0 0 0 0.25 0"/>
<feBlend mode="normal" in2="shape" result="effect1_innerShadow_2_2"/>
</filter>
</defs>
</svg>
